solid OpenSCAD_Model
  facet normal 0 0 -1
    outer loop
      vertex -5.51543 21.7789 0
      vertex -8.20244 30.1227 0
      vertex -2.68701 24.6073 0
    endloop
  endfacet
  facet normal 0 -0 -1
    outer loop
      vertex -8.20244 30.1227 0
      vertex -5.51543 21.7789 0
      vertex -11.0309 27.2943 0
    endloop
  endfacet
  facet normal -0.707099 0.707114 0
    outer loop
      vertex -8.20244 30.1227 0
      vertex -11.0309 27.2943 11.4
      vertex -8.20244 30.1227 11.4
    endloop
  endfacet
  facet normal -0.707099 0.707114 0
    outer loop
      vertex -11.0309 27.2943 11.4
      vertex -8.20244 30.1227 0
      vertex -11.0309 27.2943 0
    endloop
  endfacet
  facet normal 0 0 1
    outer loop
      vertex -8.20244 30.1227 11.4
      vertex -5.51543 21.7789 11.4
      vertex -2.68701 24.6073 11.4
    endloop
  endfacet
  facet normal 0 0 1
    outer loop
      vertex -5.51543 21.7789 11.4
      vertex -8.20244 30.1227 11.4
      vertex -11.0309 27.2943 11.4
    endloop
  endfacet
  facet normal 0.7071 0.707114 0
    outer loop
      vertex -8.20244 30.1227 11.4
      vertex -5.16188 27.0822 6.7
      vertex -8.20244 30.1227 0
    endloop
  endfacet
  facet normal 0.707105 0.707109 6.53873e-06
    outer loop
      vertex -2.68701 24.6073 11.4
      vertex -5.16188 27.0822 6.7
      vertex -8.20244 30.1227 11.4
    endloop
  endfacet
  facet normal 0.70712 0.707094 0
    outer loop
      vertex -4.31335 26.2337 6.7
      vertex -2.68701 24.6073 11.4
      vertex -4.31335 26.2337 4.7
    endloop
  endfacet
  facet normal 0.707094 0.707119 1.76779e-05
    outer loop
      vertex -5.16188 27.0822 6.7
      vertex -2.68701 24.6073 11.4
      vertex -4.31335 26.2337 6.7
    endloop
  endfacet
  facet normal 0.7071 0.707114 -0
    outer loop
      vertex -5.16188 27.0822 4.7
      vertex -8.20244 30.1227 0
      vertex -5.16188 27.0822 6.7
    endloop
  endfacet
  facet normal 0.707094 0.707119 -1.76779e-05
    outer loop
      vertex -2.68701 24.6073 0
      vertex -5.16188 27.0822 4.7
      vertex -4.31335 26.2337 4.7
    endloop
  endfacet
  facet normal 0.707105 0.707109 -6.53873e-06
    outer loop
      vertex -5.16188 27.0822 4.7
      vertex -2.68701 24.6073 0
      vertex -8.20244 30.1227 0
    endloop
  endfacet
  facet normal 0.70712 0.707094 -0
    outer loop
      vertex -2.68701 24.6073 0
      vertex -4.31335 26.2337 4.7
      vertex -2.68701 24.6073 11.4
    endloop
  endfacet
  facet normal 0.707104 -0.707109 0
    outer loop
      vertex -5.51543 21.7789 0
      vertex -2.68701 24.6073 11.4
      vertex -5.51543 21.7789 11.4
    endloop
  endfacet
  facet normal 0.707104 -0.707109 0
    outer loop
      vertex -2.68701 24.6073 11.4
      vertex -5.51543 21.7789 0
      vertex -2.68701 24.6073 0
    endloop
  endfacet
  facet normal -0.707111 -0.707102 -1.02102e-05
    outer loop
      vertex -7.14178 23.4052 6.75
      vertex -11.0309 27.2943 11.4
      vertex -9.61665 25.8801 6.75
    endloop
  endfacet
  facet normal -0.707094 -0.707119 0
    outer loop
      vertex -11.0309 27.2943 11.4
      vertex -9.61665 25.8801 4.65
      vertex -9.61665 25.8801 6.75
    endloop
  endfacet
  facet normal -0.707111 -0.707102 1.02102e-05
    outer loop
      vertex -9.61665 25.8801 4.65
      vertex -11.0309 27.2943 0
      vertex -7.14178 23.4052 4.65
    endloop
  endfacet
  facet normal -0.707094 -0.707119 0
    outer loop
      vertex -11.0309 27.2943 0
      vertex -9.61665 25.8801 4.65
      vertex -11.0309 27.2943 11.4
    endloop
  endfacet
  facet normal -0.707102 -0.707111 4.46454e-06
    outer loop
      vertex -11.0309 27.2943 11.4
      vertex -7.14178 23.4052 6.75
      vertex -5.51543 21.7789 11.4
    endloop
  endfacet
  facet normal -0.707096 -0.707118 0
    outer loop
      vertex -7.14178 23.4052 4.65
      vertex -5.51543 21.7789 11.4
      vertex -7.14178 23.4052 6.75
    endloop
  endfacet
  facet normal -0.707096 -0.707118 0
    outer loop
      vertex -7.14178 23.4052 4.65
      vertex -5.51543 21.7789 0
      vertex -5.51543 21.7789 11.4
    endloop
  endfacet
  facet normal -0.707102 -0.707111 -4.46454e-06
    outer loop
      vertex -5.51543 21.7789 0
      vertex -7.14178 23.4052 4.65
      vertex -11.0309 27.2943 0
    endloop
  endfacet
  facet normal 0 0 1
    outer loop
      vertex -8.20244 27.2943 4.65
      vertex -7.14178 23.4052 4.65
      vertex -5.72756 24.8194 4.65
    endloop
  endfacet
  facet normal 0 0 1
    outer loop
      vertex -7.14178 23.4052 4.65
      vertex -8.20244 27.2943 4.65
      vertex -9.61665 25.8801 4.65
    endloop
  endfacet
  facet normal 0.707104 -0.707109 0
    outer loop
      vertex -9.61665 25.8801 6.75
      vertex -8.20244 27.2943 4.65
      vertex -8.20244 27.2943 6.75
    endloop
  endfacet
  facet normal 0.707104 -0.707109 0
    outer loop
      vertex -8.20244 27.2943 4.65
      vertex -9.61665 25.8801 6.75
      vertex -9.61665 25.8801 4.65
    endloop
  endfacet
  facet normal 0 0 -1
    outer loop
      vertex -7.14178 23.4052 6.75
      vertex -8.20244 27.2943 6.75
      vertex -5.72756 24.8194 6.75
    endloop
  endfacet
  facet normal 0 -0 -1
    outer loop
      vertex -8.20244 27.2943 6.75
      vertex -7.14178 23.4052 6.75
      vertex -9.61665 25.8801 6.75
    endloop
  endfacet
  facet normal -0.707096 -0.707118 0
    outer loop
      vertex -8.20244 27.2943 4.65
      vertex -6.57609 25.668 4.7
      vertex -8.20244 27.2943 6.75
    endloop
  endfacet
  facet normal -0.707109 -0.707104 0.000892971
    outer loop
      vertex -5.72756 24.8194 4.65
      vertex -6.57609 25.668 4.7
      vertex -8.20244 27.2943 4.65
    endloop
  endfacet
  facet normal -0.707136 -0.707078 0
    outer loop
      vertex -6.57609 25.668 4.7
      vertex -5.72756 24.8194 4.65
      vertex -5.72756 24.8194 4.7
    endloop
  endfacet
  facet normal -0.707096 -0.707118 -0
    outer loop
      vertex -6.57609 25.668 6.7
      vertex -8.20244 27.2943 6.75
      vertex -6.57609 25.668 4.7
    endloop
  endfacet
  facet normal -0.707136 -0.707078 -0
    outer loop
      vertex -5.72756 24.8194 6.75
      vertex -6.57609 25.668 6.7
      vertex -5.72756 24.8194 6.7
    endloop
  endfacet
  facet normal -0.707109 -0.707104 -0.000892971
    outer loop
      vertex -6.57609 25.668 6.7
      vertex -5.72756 24.8194 6.75
      vertex -8.20244 27.2943 6.75
    endloop
  endfacet
  facet normal -0.707102 0.707112 0
    outer loop
      vertex -7.14178 23.4052 4.65
      vertex -5.72756 24.8194 4.7
      vertex -5.72756 24.8194 4.65
    endloop
  endfacet
  facet normal -0.707102 0.707112 0
    outer loop
      vertex -5.72756 24.8194 4.7
      vertex -7.14178 23.4052 4.65
      vertex -5.72756 24.8194 6.7
    endloop
  endfacet
  facet normal -0.707102 0.707112 0
    outer loop
      vertex -7.14178 23.4052 6.75
      vertex -5.72756 24.8194 6.7
      vertex -7.14178 23.4052 4.65
    endloop
  endfacet
  facet normal -0.707102 0.707112 0
    outer loop
      vertex -5.72756 24.8194 6.7
      vertex -7.14178 23.4052 6.75
      vertex -5.72756 24.8194 6.75
    endloop
  endfacet
  facet normal -0.707129 0.707084 0
    outer loop
      vertex -5.72756 24.8194 4.7
      vertex -4.31335 26.2337 6.7
      vertex -4.31335 26.2337 4.7
    endloop
  endfacet
  facet normal -0.707129 0.707084 0
    outer loop
      vertex -4.31335 26.2337 6.7
      vertex -5.72756 24.8194 4.7
      vertex -5.72756 24.8194 6.7
    endloop
  endfacet
  facet normal 0 0 1
    outer loop
      vertex -5.16188 27.0822 4.7
      vertex -5.72756 24.8194 4.7
      vertex -4.31335 26.2337 4.7
    endloop
  endfacet
  facet normal 0 -0 1
    outer loop
      vertex -5.72756 24.8194 4.7
      vertex -5.16188 27.0822 4.7
      vertex -6.57609 25.668 4.7
    endloop
  endfacet
  facet normal 0.707104 -0.707109 0
    outer loop
      vertex -6.57609 25.668 4.7
      vertex -5.16188 27.0822 6.7
      vertex -6.57609 25.668 6.7
    endloop
  endfacet
  facet normal 0.707104 -0.707109 0
    outer loop
      vertex -5.16188 27.0822 6.7
      vertex -6.57609 25.668 4.7
      vertex -5.16188 27.0822 4.7
    endloop
  endfacet
  facet normal 0 0 -1
    outer loop
      vertex -5.72756 24.8194 6.7
      vertex -5.16188 27.0822 6.7
      vertex -4.31335 26.2337 6.7
    endloop
  endfacet
  facet normal 0 0 -1
    outer loop
      vertex -5.16188 27.0822 6.7
      vertex -5.72756 24.8194 6.7
      vertex -6.57609 25.668 6.7
    endloop
  endfacet
  facet normal 0 0 -1
    outer loop
      vertex -0.0707088 19.1626 0
      vertex -4.10122 23.1931 0
      vertex -2.687 24.6073 0
    endloop
  endfacet
  facet normal 0 0 -1
    outer loop
      vertex -4.94975 4.94975 0
      vertex -0.0707088 19.1626 0
      vertex 4.59619 14.4957 0
    endloop
  endfacet
  facet normal 0 0 -1
    outer loop
      vertex -13.6472 13.6472 0
      vertex -0.0707088 19.1626 0
      vertex -4.94975 4.94975 0
    endloop
  endfacet
  facet normal -0 0 -1
    outer loop
      vertex -0.0707088 19.1626 0
      vertex -13.6472 13.6472 0
      vertex -4.10122 23.1931 0
    endloop
  endfacet
  facet normal 0.90134 0.433112 0
    outer loop
      vertex -0.0707088 19.1626 11.4
      vertex -2.687 24.6073 0
      vertex -2.687 24.6073 11.4
    endloop
  endfacet
  facet normal 0.90134 0.433112 0
    outer loop
      vertex -2.687 24.6073 0
      vertex -0.0707088 19.1626 11.4
      vertex -0.0707088 19.1626 0
    endloop
  endfacet
  facet normal -0.707108 -0.707106 0
    outer loop
      vertex 2.54558 13.7179 2
      vertex -3.3941 19.6576 11.4
      vertex -3.3941 19.6576 2
    endloop
  endfacet
  facet normal -0.707108 -0.707106 0
    outer loop
      vertex -3.3941 19.6576 11.4
      vertex 2.54558 13.7179 2
      vertex 2.54558 13.7179 11.4
    endloop
  endfacet
  facet normal -0.707109 -0.707105 0
    outer loop
      vertex 2.54558 13.7179 2
      vertex 4.38407 11.8794 2
      vertex 2.54558 13.7179 11.4
    endloop
  endfacet
  facet normal -0.707108 -0.707106 0
    outer loop
      vertex 2.54558 13.7179 11.4
      vertex -3.3941 19.6576 26.25
      vertex -3.3941 19.6576 11.4
    endloop
  endfacet
  facet normal -0.707108 -0.707105 -1.76809e-07
    outer loop
      vertex 2.54558 13.7179 11.4
      vertex 6.6251 9.63836 26.25
      vertex -3.3941 19.6576 26.25
    endloop
  endfacet
  facet normal -0.707109 -0.707105 4.33575e-08
    outer loop
      vertex 6.6251 9.63836 26.25
      vertex 2.54558 13.7179 11.4
      vertex 4.38407 11.8794 2
    endloop
  endfacet
  facet normal -0 0 1
    outer loop
      vertex -4.10122 23.1931 11.4
      vertex -0.0707088 19.1626 11.4
      vertex -2.687 24.6073 11.4
    endloop
  endfacet
  facet normal -0.707102 0.707112 0
    outer loop
      vertex -2.687 24.6073 0
      vertex -4.10122 23.1931 11.4
      vertex -2.687 24.6073 11.4
    endloop
  endfacet
  facet normal -0.707102 0.707112 0
    outer loop
      vertex -4.10122 23.1931 11.4
      vertex -2.687 24.6073 0
      vertex -4.10122 23.1931 0
    endloop
  endfacet
  facet normal 0 0 1
    outer loop
      vertex -6.31093 20.9834 2
      vertex -11.4375 15.8569 2
      vertex -9.31612 13.7355 2
    endloop
  endfacet
  facet normal 0 0 1
    outer loop
      vertex 2.54558 13.7179 2
      vertex -2.33344 5.16187 2
      vertex 4.38407 11.8794 2
    endloop
  endfacet
  facet normal -0 0 1
    outer loop
      vertex -4.1896 18.8621 2
      vertex 2.54558 13.7179 2
      vertex -3.3941 19.6576 2
    endloop
  endfacet
  facet normal -0 0 1
    outer loop
      vertex -9.31612 13.7355 2
      vertex 2.54558 13.7179 2
      vertex -4.1896 18.8621 2
    endloop
  endfacet
  facet normal 0 0 1
    outer loop
      vertex -9.31612 13.7355 2
      vertex -4.1896 18.8621 2
      vertex -6.31093 20.9834 2
    endloop
  endfacet
  facet normal 0 0 1
    outer loop
      vertex 2.54558 13.7179 2
      vertex -9.31612 13.7355 2
      vertex -2.33344 5.16187 2
    endloop
  endfacet
  facet normal 0 0 1
    outer loop
      vertex -2.33344 5.16187 2
      vertex -9.31612 13.7355 2
      vertex -10.1116 12.94 2
    endloop
  endfacet
  facet normal 0.70711 0.707103 0
    outer loop
      vertex -9.31612 13.7355 26.25
      vertex -11.4375 15.8569 2
      vertex -11.4375 15.8569 26.25
    endloop
  endfacet
  facet normal 0.70711 0.707103 0
    outer loop
      vertex -11.4375 15.8569 2
      vertex -9.31612 13.7355 26.25
      vertex -9.31612 13.7355 2
    endloop
  endfacet
  facet normal -0.707102 -0.707112 0
    outer loop
      vertex -4.1896 18.8621 2
      vertex -6.31093 20.9834 26.25
      vertex -6.31093 20.9834 2
    endloop
  endfacet
  facet normal -0.707102 -0.707112 0
    outer loop
      vertex -6.31093 20.9834 26.25
      vertex -4.1896 18.8621 2
      vertex -4.1896 18.8621 26.25
    endloop
  endfacet
  facet normal 0.706762 -0.706757 0.0313482
    outer loop
      vertex -10.7425 10.7425 16.202
      vertex -9.33381 12.1622 16.45
      vertex -10.748 10.748 16.45
    endloop
  endfacet
  facet normal 0.706759 -0.706759 0.0313767
    outer loop
      vertex -9.33381 12.1622 16.45
      vertex -10.7425 10.7425 16.202
      vertex -9.3283 12.1567 16.202
    endloop
  endfacet
  facet normal 0.467528 -0.467538 0.750218
    outer loop
      vertex -8.45273 11.2812 13.5706
      vertex -9.73532 9.73532 13.4065
      vertex -8.32111 11.1495 13.4065
    endloop
  endfacet
  facet normal 0.467621 -0.467604 0.750118
    outer loop
      vertex -9.73532 9.73532 13.4065
      vertex -8.45273 11.2812 13.5706
      vertex -9.86694 9.86694 13.5706
    endloop
  endfacet
  facet normal 0.630089 -0.630098 0.453833
    outer loop
      vertex -10.4822 10.4822 14.7682
      vertex -8.98833 11.8168 14.5471
      vertex -9.06798 11.8964 14.7682
    endloop
  endfacet
  facet normal 0.63 -0.629942 0.454172
    outer loop
      vertex -8.98833 11.8168 14.5471
      vertex -10.4822 10.4822 14.7682
      vertex -10.4025 10.4025 14.5471
    endloop
  endfacet
  facet normal 0.239626 -0.239622 0.94083
    outer loop
      vertex -7.56894 10.3974 12.7774
      vertex -8.81806 8.81806 12.6933
      vertex -7.40384 10.2323 12.6933
    endloop
  endfacet
  facet normal 0.23964 -0.239633 0.940823
    outer loop
      vertex -8.81806 8.81806 12.6933
      vertex -7.56894 10.3974 12.7774
      vertex -8.98315 8.98315 12.7774
    endloop
  endfacet
  facet normal 0.678999 -0.679018 0.279097
    outer loop
      vertex -10.6603 10.6603 15.4677
      vertex -9.19711 12.0255 15.2294
      vertex -9.24606 12.0745 15.4677
    endloop
  endfacet
  facet normal 0.678984 -0.678979 0.279229
    outer loop
      vertex -9.19711 12.0255 15.2294
      vertex -10.6603 10.6603 15.4677
      vertex -10.6113 10.6113 15.2294
    endloop
  endfacet
  facet normal 0.110842 -0.110843 0.987638
    outer loop
      vertex -7.06411 9.89253 12.57
      vertex -8.30502 8.30502 12.5311
      vertex -6.8908 9.71923 12.5311
    endloop
  endfacet
  facet normal 0.110846 -0.110846 0.987637
    outer loop
      vertex -8.30502 8.30502 12.5311
      vertex -7.06411 9.89253 12.57
      vertex -8.47832 8.47832 12.57
    endloop
  endfacet
  facet normal 0.359847 -0.359855 0.860822
    outer loop
      vertex -8.03734 10.8658 13.1149
      vertex -9.30052 9.30052 12.9886
      vertex -7.88631 10.7147 12.9886
    endloop
  endfacet
  facet normal 0.359918 -0.359908 0.86077
    outer loop
      vertex -9.30052 9.30052 12.9886
      vertex -8.03734 10.8658 13.1149
      vertex -9.45155 9.45155 13.1149
    endloop
  endfacet
  facet normal 0.433447 -0.433447 0.790093
    outer loop
      vertex -8.32111 11.1495 13.4065
      vertex -9.59668 9.59668 13.2544
      vertex -8.18246 11.0109 13.2544
    endloop
  endfacet
  facet normal 0.433413 -0.433422 0.790125
    outer loop
      vertex -9.59668 9.59668 13.2544
      vertex -8.32111 11.1495 13.4065
      vertex -9.73532 9.73532 13.4065
    endloop
  endfacet
  facet normal 0.321155 -0.321153 0.89091
    outer loop
      vertex -7.88631 10.7147 12.9886
      vertex -9.14418 9.14418 12.8759
      vertex -7.72997 10.5584 12.8759
    endloop
  endfacet
  facet normal 0.321118 -0.321125 0.890933
    outer loop
      vertex -9.14418 9.14418 12.8759
      vertex -7.88631 10.7147 12.9886
      vertex -9.30052 9.30052 12.9886
    endloop
  endfacet
  facet normal 0.55872 -0.558664 0.612965
    outer loop
      vertex -8.80038 11.6288 14.1282
      vertex -10.107 10.107 13.9322
      vertex -8.69284 11.5213 13.9322
    endloop
  endfacet
  facet normal 0.558532 -0.55854 0.61325
    outer loop
      vertex -10.107 10.107 13.9322
      vertex -8.80038 11.6288 14.1282
      vertex -10.2146 10.2146 14.1282
    endloop
  endfacet
  facet normal 0.6086 -0.608544 0.509195
    outer loop
      vertex -10.4025 10.4025 14.5471
      vertex -8.89901 11.7274 14.3335
      vertex -8.98833 11.8168 14.5471
    endloop
  endfacet
  facet normal 0.60868 -0.608676 0.508942
    outer loop
      vertex -8.89901 11.7274 14.3335
      vertex -10.4025 10.4025 14.5471
      vertex -10.3132 10.3132 14.3335
    endloop
  endfacet
  facet normal 0.530418 -0.530426 0.66129
    outer loop
      vertex -8.69284 11.5213 13.9322
      vertex -9.99101 9.99101 13.746
      vertex -8.5768 11.4052 13.746
    endloop
  endfacet
  facet normal 0.530608 -0.530556 0.661033
    outer loop
      vertex -9.99101 9.99101 13.746
      vertex -8.69284 11.5213 13.9322
      vertex -10.107 10.107 13.9322
    endloop
  endfacet
  facet normal 0.665335 -0.66533 0.338622
    outer loop
      vertex -10.6113 10.6113 15.2294
      vertex -9.13767 11.9661 14.9959
      vertex -9.19711 12.0255 15.2294
    endloop
  endfacet
  facet normal 0.665351 -0.665366 0.338521
    outer loop
      vertex -9.13767 11.9661 14.9959
      vertex -10.6113 10.6113 15.2294
      vertex -10.5519 10.5519 14.9959
    endloop
  endfacet
  facet normal 0.698427 -0.698437 0.156157
    outer loop
      vertex -10.6986 10.6986 15.7098
      vertex -9.31178 12.1402 15.9549
      vertex -10.726 10.726 15.9549
    endloop
  endfacet
  facet normal 0.698405 -0.698435 0.156268
    outer loop
      vertex -9.31178 12.1402 15.9549
      vertex -10.6986 10.6986 15.7098
      vertex -9.28434 12.1128 15.7098
    endloop
  endfacet
  facet normal -0.558632 0.558636 0.613072
    outer loop
      vertex -4.38864 7.21707 13.9322
      vertex -5.69531 5.69531 14.1282
      vertex -4.28109 7.10952 14.1282
    endloop
  endfacet
  facet normal -0.558655 0.558651 0.613036
    outer loop
      vertex -5.69531 5.69531 14.1282
      vertex -4.38864 7.21707 13.9322
      vertex -5.80285 5.80285 13.9322
    endloop
  endfacet
  facet normal -0.630039 0.630034 0.453991
    outer loop
      vertex -5.50736 5.50736 14.5471
      vertex -4.01349 6.84192 14.7682
      vertex -4.09315 6.92158 14.5471
    endloop
  endfacet
  facet normal -0.630039 0.630034 0.453991
    outer loop
      vertex -4.01349 6.84192 14.7682
      vertex -5.50736 5.50736 14.5471
      vertex -5.4277 5.4277 14.7682
    endloop
  endfacet
  facet normal -0.467624 0.467621 0.750105
    outer loop
      vertex -4.76037 7.58879 13.4065
      vertex -6.04296 6.04296 13.5706
      vertex -4.62875 7.45718 13.5706
    endloop
  endfacet
  facet normal -0.467613 0.467613 0.750118
    outer loop
      vertex -6.04296 6.04296 13.5706
      vertex -4.76037 7.58879 13.4065
      vertex -6.17458 6.17458 13.4065
    endloop
  endfacet
  facet normal -0.197195 0.197194 0.960327
    outer loop
      vertex -5.84613 8.67456 12.6241
      vertex -7.09184 7.09184 12.6933
      vertex -5.67763 8.50606 12.6933
    endloop
  endfacet
  facet normal -0.197195 0.197194 0.960327
    outer loop
      vertex -7.09184 7.09184 12.6933
      vertex -5.84613 8.67456 12.6241
      vertex -7.26034 7.26034 12.6241
    endloop
  endfacet
  facet normal -0.0663947 0.0663952 0.995582
    outer loop
      vertex -6.36536 9.19379 12.5078
      vertex -7.60489 7.60489 12.5311
      vertex -6.19067 9.0191 12.5311
    endloop
  endfacet
  facet normal -0.0663989 0.0663985 0.995581
    outer loop
      vertex -7.60489 7.60489 12.5311
      vertex -6.36536 9.19379 12.5078
      vertex -7.77957 7.77957 12.5078
    endloop
  endfacet
  facet normal 0.397527 -0.397516 0.827015
    outer loop
      vertex -8.18246 11.0109 13.2544
      vertex -9.45155 9.45155 13.1149
      vertex -8.03734 10.8658 13.1149
    endloop
  endfacet
  facet normal 0.397484 -0.397484 0.827051
    outer loop
      vertex -9.45155 9.45155 13.1149
      vertex -8.18246 11.0109 13.2544
      vertex -9.59668 9.59668 13.2544
    endloop
  endfacet
  facet normal 0.280737 -0.280729 0.917812
    outer loop
      vertex -7.72997 10.5584 12.8759
      vertex -8.98315 8.98315 12.7774
      vertex -7.56894 10.3974 12.7774
    endloop
  endfacet
  facet normal 0.280712 -0.28071 0.917825
    outer loop
      vertex -8.98315 8.98315 12.7774
      vertex -7.72997 10.5584 12.8759
      vertex -9.14418 9.14418 12.8759
    endloop
  endfacet
  facet normal 0.154153 -0.154153 0.975948
    outer loop
      vertex -7.23535 10.0638 12.6241
      vertex -8.47832 8.47832 12.57
      vertex -7.06411 9.89253 12.57
    endloop
  endfacet
  facet normal 0.154167 -0.154164 0.975944
    outer loop
      vertex -8.47832 8.47832 12.57
      vertex -7.23535 10.0638 12.6241
      vertex -8.64956 8.64956 12.6241
    endloop
  endfacet
  facet normal 0.197202 -0.197198 0.960325
    outer loop
      vertex -7.40384 10.2323 12.6933
      vertex -8.64956 8.64956 12.6241
      vertex -7.23535 10.0638 12.6241
    endloop
  endfacet
  facet normal 0.197196 -0.197193 0.960327
    outer loop
      vertex -8.64956 8.64956 12.6241
      vertex -7.40384 10.2323 12.6933
      vertex -8.81806 8.81806 12.6933
    endloop
  endfacet
  facet normal 0.0663968 -0.0663968 0.995582
    outer loop
      vertex -6.8908 9.71923 12.5311
      vertex -8.13033 8.13033 12.5078
      vertex -6.71612 9.54454 12.5078
    endloop
  endfacet
  facet normal 0.0663947 -0.0663952 0.995582
    outer loop
      vertex -8.13033 8.13033 12.5078
      vertex -6.8908 9.71923 12.5311
      vertex -8.30502 8.30502 12.5311
    endloop
  endfacet
  facet normal 0.0222264 -0.0222264 0.999506
    outer loop
      vertex -6.71612 9.54454 12.5078
      vertex -7.95495 7.95495 12.5
      vertex -6.54074 9.36916 12.5
    endloop
  endfacet
  facet normal 0.0222264 -0.0222264 0.999506
    outer loop
      vertex -7.95495 7.95495 12.5
      vertex -6.71612 9.54454 12.5078
      vertex -8.13033 8.13033 12.5078
    endloop
  endfacet
  facet normal -0.0222272 0.022227 0.999506
    outer loop
      vertex -6.54074 9.36916 12.5
      vertex -7.77957 7.77957 12.5078
      vertex -6.36536 9.19379 12.5078
    endloop
  endfacet
  facet normal -0.0222264 0.0222264 0.999506
    outer loop
      vertex -7.77957 7.77957 12.5078
      vertex -6.54074 9.36916 12.5
      vertex -7.95495 7.95495 12.5
    endloop
  endfacet
  facet normal 0.584915 -0.58491 0.561921
    outer loop
      vertex -10.3132 10.3132 14.3335
      vertex -8.80038 11.6288 14.1282
      vertex -8.89901 11.7274 14.3335
    endloop
  endfacet
  facet normal 0.584936 -0.584945 0.561862
    outer loop
      vertex -8.80038 11.6288 14.1282
      vertex -10.3132 10.3132 14.3335
      vertex -10.2146 10.2146 14.1282
    endloop
  endfacet
  facet normal 0.499992 -0.499974 0.707131
    outer loop
      vertex -8.5768 11.4052 13.746
      vertex -9.86694 9.86694 13.5706
      vertex -8.45273 11.2812 13.5706
    endloop
  endfacet
  facet normal 0.499909 -0.499916 0.707231
    outer loop
      vertex -9.86694 9.86694 13.5706
      vertex -8.5768 11.4052 13.746
      vertex -9.99101 9.99101 13.746
    endloop
  endfacet
  facet normal 0.648906 -0.64892 0.39727
    outer loop
      vertex -10.4822 10.4822 14.7682
      vertex -9.13767 11.9661 14.9959
      vertex -10.5519 10.5519 14.9959
    endloop
  endfacet
  facet normal 0.648916 -0.648925 0.397246
    outer loop
      vertex -9.13767 11.9661 14.9959
      vertex -10.4822 10.4822 14.7682
      vertex -9.06798 11.8964 14.7682
    endloop
  endfacet
  facet normal 0.690042 -0.690071 0.218276
    outer loop
      vertex -10.6986 10.6986 15.7098
      vertex -9.24606 12.0745 15.4677
      vertex -9.28434 12.1128 15.7098
    endloop
  endfacet
  facet normal 0.690038 -0.690058 0.21833
    outer loop
      vertex -9.24606 12.0745 15.4677
      vertex -10.6986 10.6986 15.7098
      vertex -10.6603 10.6603 15.4677
    endloop
  endfacet
  facet normal 0.703975 -0.703975 0.0940153
    outer loop
      vertex -10.726 10.726 15.9549
      vertex -9.3283 12.1567 16.202
      vertex -10.7425 10.7425 16.202
    endloop
  endfacet
  facet normal 0.703966 -0.703976 0.0940717
    outer loop
      vertex -9.3283 12.1567 16.202
      vertex -10.726 10.726 15.9549
      vertex -9.31178 12.1402 15.9549
    endloop
  endfacet
  facet normal -0.584901 0.584905 0.56194
    outer loop
      vertex -5.69531 5.69531 14.1282
      vertex -4.18247 7.0109 14.3335
      vertex -4.28109 7.10952 14.1282
    endloop
  endfacet
  facet normal -0.584886 0.584882 0.561979
    outer loop
      vertex -4.18247 7.0109 14.3335
      vertex -5.69531 5.69531 14.1282
      vertex -5.59668 5.59668 14.3335
    endloop
  endfacet
  facet normal -0.648937 0.648933 0.397198
    outer loop
      vertex -5.4277 5.4277 14.7682
      vertex -3.94381 6.77223 14.9959
      vertex -4.01349 6.84192 14.7682
    endloop
  endfacet
  facet normal -0.648942 0.648942 0.397174
    outer loop
      vertex -3.94381 6.77223 14.9959
      vertex -5.4277 5.4277 14.7682
      vertex -5.35802 5.35802 14.9959
    endloop
  endfacet
  facet normal -0.679027 0.679022 0.279018
    outer loop
      vertex -5.29858 5.29858 15.2294
      vertex -3.83541 6.66384 15.4677
      vertex -3.88437 6.7128 15.2294
    endloop
  endfacet
  facet normal -0.679033 0.679038 0.278966
    outer loop
      vertex -3.83541 6.66384 15.4677
      vertex -5.29858 5.29858 15.2294
      vertex -5.24963 5.24963 15.4677
    endloop
  endfacet
  facet normal -0.698404 0.698399 0.156435
    outer loop
      vertex -5.21135 5.21135 15.7098
      vertex -3.76969 6.59812 15.9549
      vertex -3.79714 6.62557 15.7098
    endloop
  endfacet
  facet normal -0.698404 0.698399 0.156435
    outer loop
      vertex -3.76969 6.59812 15.9549
      vertex -5.21135 5.21135 15.7098
      vertex -5.1839 5.1839 15.9549
    endloop
  endfacet
  facet normal -0.703972 0.703967 0.0941
    outer loop
      vertex -5.1839 5.1839 15.9549
      vertex -3.75318 6.5816 16.202
      vertex -3.76969 6.59812 15.9549
    endloop
  endfacet
  facet normal -0.703971 0.703971 0.0940717
    outer loop
      vertex -3.75318 6.5816 16.202
      vertex -5.1839 5.1839 15.9549
      vertex -5.16739 5.16739 16.202
    endloop
  endfacet
  facet normal -0.321112 0.321114 0.890939
    outer loop
      vertex -5.35151 8.17993 12.8759
      vertex -6.60938 6.60938 12.9886
      vertex -5.19516 8.02359 12.9886
    endloop
  endfacet
  facet normal -0.321121 0.321121 0.890933
    outer loop
      vertex -6.60938 6.60938 12.9886
      vertex -5.35151 8.17993 12.8759
      vertex -6.76572 6.76572 12.8759
    endloop
  endfacet
  facet normal -0.397504 0.397501 0.827033
    outer loop
      vertex -5.04413 7.87256 13.1149
      vertex -6.31322 6.31322 13.2544
      vertex -4.89901 7.72744 13.2544
    endloop
  endfacet
  facet normal -0.397482 0.397485 0.827051
    outer loop
      vertex -6.31322 6.31322 13.2544
      vertex -5.04413 7.87256 13.1149
      vertex -6.45835 6.45835 13.1149
    endloop
  endfacet
  facet normal -0.499902 0.499902 0.707245
    outer loop
      vertex -4.62875 7.45718 13.5706
      vertex -5.91889 5.91889 13.746
      vertex -4.50468 7.3331 13.746
    endloop
  endfacet
  facet normal -0.499914 0.499911 0.707231
    outer loop
      vertex -5.91889 5.91889 13.746
      vertex -4.62875 7.45718 13.5706
      vertex -6.04296 6.04296 13.5706
    endloop
  endfacet
  facet normal -0.239638 0.239636 0.940823
    outer loop
      vertex -5.67763 8.50606 12.6933
      vertex -6.92675 6.92675 12.7774
      vertex -5.51254 8.34097 12.7774
    endloop
  endfacet
  facet normal -0.239638 0.239636 0.940823
    outer loop
      vertex -6.92675 6.92675 12.7774
      vertex -5.67763 8.50606 12.6933
      vertex -7.09184 7.09184 12.6933
    endloop
  endfacet
  facet normal -0.110846 0.110845 0.987637
    outer loop
      vertex -6.19067 9.0191 12.5311
      vertex -7.43158 7.43158 12.57
      vertex -6.01737 8.8458 12.57
    endloop
  endfacet
  facet normal -0.110839 0.11084 0.987638
    outer loop
      vertex -7.43158 7.43158 12.57
      vertex -6.19067 9.0191 12.5311
      vertex -7.60489 7.60489 12.5311
    endloop
  endfacet
  facet normal -0.608645 0.608641 0.509026
    outer loop
      vertex -5.59668 5.59668 14.3335
      vertex -4.09315 6.92158 14.5471
      vertex -4.18247 7.0109 14.3335
    endloop
  endfacet
  facet normal -0.608645 0.608641 0.509026
    outer loop
      vertex -4.09315 6.92158 14.5471
      vertex -5.59668 5.59668 14.3335
      vertex -5.50736 5.50736 14.5471
    endloop
  endfacet
  facet normal -0.665314 0.665314 0.338697
    outer loop
      vertex -5.35802 5.35802 14.9959
      vertex -3.88437 6.7128 15.2294
      vertex -3.94381 6.77223 14.9959
    endloop
  endfacet
  facet normal -0.665309 0.665305 0.338723
    outer loop
      vertex -3.88437 6.7128 15.2294
      vertex -5.35802 5.35802 14.9959
      vertex -5.29858 5.29858 15.2294
    endloop
  endfacet
  facet normal -0.690071 0.690076 0.218167
    outer loop
      vertex -5.24963 5.24963 15.4677
      vertex -3.79714 6.62557 15.7098
      vertex -3.83541 6.66384 15.4677
    endloop
  endfacet
  facet normal -0.690067 0.690063 0.218221
    outer loop
      vertex -3.79714 6.62557 15.7098
      vertex -5.24963 5.24963 15.4677
      vertex -5.21135 5.21135 15.7098
    endloop
  endfacet
  facet normal -0.706758 0.706758 0.0314051
    outer loop
      vertex -5.16739 5.16739 16.202
      vertex -3.74767 6.57609 16.45
      vertex -3.75318 6.5816 16.202
    endloop
  endfacet
  facet normal -0.706758 0.706758 0.0314051
    outer loop
      vertex -3.74767 6.57609 16.45
      vertex -5.16739 5.16739 16.202
      vertex -5.16188 5.16188 16.45
    endloop
  endfacet
  facet normal -0.359912 0.359914 0.86077
    outer loop
      vertex -5.19516 8.02359 12.9886
      vertex -6.45835 6.45835 13.1149
      vertex -5.04413 7.87256 13.1149
    endloop
  endfacet
  facet normal -0.359912 0.359914 0.86077
    outer loop
      vertex -6.45835 6.45835 13.1149
      vertex -5.19516 8.02359 12.9886
      vertex -6.60938 6.60938 12.9886
    endloop
  endfacet
  facet normal -0.433408 0.433408 0.790136
    outer loop
      vertex -4.89901 7.72744 13.2544
      vertex -6.17458 6.17458 13.4065
      vertex -4.76037 7.58879 13.4065
    endloop
  endfacet
  facet normal -0.433419 0.433416 0.790125
    outer loop
      vertex -6.17458 6.17458 13.4065
      vertex -4.89901 7.72744 13.2544
      vertex -6.31322 6.31322 13.2544
    endloop
  endfacet
  facet normal -0.530494 0.53049 0.661178
    outer loop
      vertex -4.50468 7.3331 13.746
      vertex -5.80285 5.80285 13.9322
      vertex -4.38864 7.21707 13.9322
    endloop
  endfacet
  facet normal -0.530482 0.530482 0.661194
    outer loop
      vertex -5.80285 5.80285 13.9322
      vertex -4.50468 7.3331 13.746
      vertex -5.91889 5.91889 13.746
    endloop
  endfacet
  facet normal -0.280704 0.280704 0.917829
    outer loop
      vertex -5.51254 8.34097 12.7774
      vertex -6.76572 6.76572 12.8759
      vertex -5.35151 8.17993 12.8759
    endloop
  endfacet
  facet normal -0.280712 0.28071 0.917825
    outer loop
      vertex -6.76572 6.76572 12.8759
      vertex -5.51254 8.34097 12.7774
      vertex -6.92675 6.92675 12.7774
    endloop
  endfacet
  facet normal -0.154166 0.154165 0.975944
    outer loop
      vertex -6.01737 8.8458 12.57
      vertex -7.26034 7.26034 12.6241
      vertex -5.84613 8.67456 12.6241
    endloop
  endfacet
  facet normal -0.154166 0.154165 0.975944
    outer loop
      vertex -7.26034 7.26034 12.6241
      vertex -6.01737 8.8458 12.57
      vertex -7.43158 7.43158 12.57
    endloop
  endfacet
  facet normal -0.707107 0.707107 0
    outer loop
      vertex -5.16188 5.16188 16.45
      vertex -3.74767 6.57609 26.25
      vertex -3.74767 6.57609 16.45
    endloop
  endfacet
  facet normal -0.707107 0.707107 0
    outer loop
      vertex -3.74767 6.57609 26.25
      vertex -5.16188 5.16188 16.45
      vertex -5.16188 5.16188 26.25
    endloop
  endfacet
  facet normal 0.707109 -0.707104 0
    outer loop
      vertex -10.748 10.748 16.45
      vertex -9.33381 12.1622 26.25
      vertex -10.748 10.748 26.25
    endloop
  endfacet
  facet normal 0.707109 -0.707104 0
    outer loop
      vertex -9.33381 12.1622 26.25
      vertex -10.748 10.748 16.45
      vertex -9.33381 12.1622 16.45
    endloop
  endfacet
  facet normal 0 0 0
    outer loop
      vertex -4.10122 23.1931 26.25
      vertex -4.10122 23.1931 11.4
      vertex -4.10122 23.1931 0
    endloop
  endfacet
  facet normal 0.707106 0.707108 0
    outer loop
      vertex -4.10122 23.1931 26.25
      vertex -0.0707088 19.1626 11.4
      vertex -4.10122 23.1931 11.4
    endloop
  endfacet
  facet normal 0.707107 0.707107 0
    outer loop
      vertex -0.0707088 19.1626 11.4
      vertex 4.59619 14.4957 0.0628307
      vertex -0.0707088 19.1626 0
    endloop
  endfacet
  facet normal 0.707107 0.707107 5.33306e-07
    outer loop
      vertex 9.54594 9.54594 26.25
      vertex -0.0707088 19.1626 11.4
      vertex -4.10122 23.1931 26.25
    endloop
  endfacet
  facet normal 0.70711 0.707104 1.39489e-05
    outer loop
      vertex 9.53478 9.55711 7.49768
      vertex -0.0707088 19.1626 11.4
      vertex 9.54594 9.54594 8
    endloop
  endfacet
  facet normal 0.707107 0.707107 -5.74784e-09
    outer loop
      vertex 9.50134 9.59055 6.99733
      vertex -0.0707088 19.1626 11.4
      vertex 9.53478 9.55711 7.49768
    endloop
  endfacet
  facet normal 0.707104 0.70711 -1.35568e-05
    outer loop
      vertex 9.44574 9.64614 6.50095
      vertex -0.0707088 19.1626 11.4
      vertex 9.50134 9.59055 6.99733
    endloop
  endfacet
  facet normal 0.707107 0.707106 -1.21635e-07
    outer loop
      vertex 9.36822 9.72366 6.01048
      vertex -0.0707088 19.1626 11.4
      vertex 9.44574 9.64614 6.50095
    endloop
  endfacet
  facet normal 0.707111 0.707103 1.2959e-05
    outer loop
      vertex 9.26908 9.82281 5.52786
      vertex -0.0707088 19.1626 11.4
      vertex 9.36822 9.72366 6.01048
    endloop
  endfacet
  facet normal 0.707107 0.707107 -1.99375e-08
    outer loop
      vertex 9.1487 9.94319 5.055
      vertex -0.0707088 19.1626 11.4
      vertex 9.26908 9.82281 5.52786
    endloop
  endfacet
  facet normal 0.70714 0.707073 8.63345e-05
    outer loop
      vertex 8.84623 10.2457 4.14597
      vertex -0.0707088 19.1626 11.4
      vertex 9.00756 10.0843 4.59377
    endloop
  endfacet
  facet normal 0.707106 0.707108 9.60072e-07
    outer loop
      vertex 8.66533 10.4266 3.71339
      vertex -0.0707088 19.1626 11.4
      vertex 8.84623 10.2457 4.14597
    endloop
  endfacet
  facet normal 0.707079 0.707134 -5.87215e-05
    outer loop
      vertex 8.46558 10.6263 3.29772
      vertex -0.0707088 19.1626 11.4
      vertex 8.66533 10.4266 3.71339
    endloop
  endfacet
  facet normal 0.707102 0.707112 -1.20448e-05
    outer loop
      vertex 8.24777 10.8441 2.90061
      vertex -0.0707088 19.1626 11.4
      vertex 8.46558 10.6263 3.29772
    endloop
  endfacet
  facet normal 0.707125 0.707089 -4.10642e-05
    outer loop
      vertex 8.01276 11.0791 2.52362
      vertex 4.59619 14.4957 0.0628307
      vertex 8.24777 10.8441 2.90061
    endloop
  endfacet
  facet normal 0.707099 0.707115 3.16031e-05
    outer loop
      vertex 7.76147 11.3304 2.16825
      vertex 4.59619 14.4957 0.0628307
      vertex 8.01276 11.0791 2.52362
    endloop
  endfacet
  facet normal 0.707104 0.70711 5.02656e-06
    outer loop
      vertex 7.2141 11.8778 1.52786
      vertex 4.59619 14.4957 0.0628307
      vertex 7.4949 11.597 1.83589
    endloop
  endfacet
  facet normal 0.711086 0.70191 -0.0409659
    outer loop
      vertex 4.59619 14.4957 0.0628307
      vertex 4.94908 14.1428 0.141703
      vertex 4.59808 14.4938 0.0630827
    endloop
  endfacet
  facet normal 0.707218 0.706995 -0.000339951
    outer loop
      vertex 5.29589 13.796 0.251335
      vertex 7.2141 11.8778 1.52786
      vertex 5.63715 13.4547 0.391548
    endloop
  endfacet
  facet normal 0.707089 0.707125 4.78101e-05
    outer loop
      vertex 4.94908 14.1428 0.141703
      vertex 7.2141 11.8778 1.52786
      vertex 5.29589 13.796 0.251335
    endloop
  endfacet
  facet normal 0.706917 0.707296 0.000494257
    outer loop
      vertex 5.63715 13.4547 0.391548
      vertex 7.2141 11.8778 1.52786
      vertex 5.97151 13.1204 0.561789
    endloop
  endfacet
  facet normal 0.707351 0.706863 -0.000620427
    outer loop
      vertex 5.97151 13.1204 0.561789
      vertex 7.2141 11.8778 1.52786
      vertex 6.29766 12.7942 0.761384
    endloop
  endfacet
  facet normal 0.707149 0.707064 -0.000138326
    outer loop
      vertex 6.29766 12.7942 0.761384
      vertex 7.2141 11.8778 1.52786
      vertex 6.92018 12.1717 1.24538
    endloop
  endfacet
  facet normal 0.706639 0.707573 0.00117133
    outer loop
      vertex 6.29766 12.7942 0.761384
      vertex 6.92018 12.1717 1.24538
      vertex 6.6143 12.4776 0.989547
    endloop
  endfacet
  facet normal 0.707124 0.707089 -6.76499e-05
    outer loop
      vertex 4.94908 14.1428 0.141703
      vertex 4.59619 14.4957 0.0628307
      vertex 7.2141 11.8778 1.52786
    endloop
  endfacet
  facet normal 0.707066 0.707147 0.000129143
    outer loop
      vertex 7.4949 11.597 1.83589
      vertex 4.59619 14.4957 0.0628307
      vertex 7.76147 11.3304 2.16825
    endloop
  endfacet
  facet normal 0.707108 0.707105 1.15115e-06
    outer loop
      vertex -0.0707088 19.1626 11.4
      vertex 8.24777 10.8441 2.90061
      vertex 4.59619 14.4957 0.0628307
    endloop
  endfacet
  facet normal 0.707107 0.707106 0
    outer loop
      vertex -0.0707088 19.1626 11.4
      vertex 9.54594 9.54594 26.25
      vertex 9.54594 9.54594 8
    endloop
  endfacet
  facet normal 0.707094 0.70712 -3.80156e-05
    outer loop
      vertex 9.00756 10.0843 4.59377
      vertex -0.0707088 19.1626 11.4
      vertex 9.1487 9.94319 5.055
    endloop
  endfacet
  facet normal 0.707107 0.707107 0
    outer loop
      vertex -0.0707088 19.1626 0
      vertex 4.59619 14.4957 0.0628307
      vertex 4.59619 14.4957 0
    endloop
  endfacet
  facet normal 0.707107 -0.707107 0
    outer loop
      vertex 0 0 26.25
      vertex 9.54594 9.54594 8
      vertex 9.54594 9.54594 26.25
    endloop
  endfacet
  facet normal 0.707107 -0.707107 0
    outer loop
      vertex 9.54594 9.54594 8
      vertex 0 0 26.25
      vertex 0 0 8
    endloop
  endfacet
  facet normal 0.706758 -0.706758 -0.031418
    outer loop
      vertex 9.54594 9.54594 8
      vertex -0.0111632 0.0111632 7.49768
      vertex 9.53478 9.55711 7.49768
    endloop
  endfacet
  facet normal 0.706758 -0.706758 -0.031413
    outer loop
      vertex -0.0111632 0.0111632 7.49768
      vertex 9.54594 9.54594 8
      vertex 0 0 8
    endloop
  endfacet
  facet normal 0.499989 -0.499991 -0.707122
    outer loop
      vertex -1.53319 1.53319 2.52362
      vertex 7.76147 11.3304 2.16825
      vertex 8.01276 11.0791 2.52362
    endloop
  endfacet
  facet normal 0.500004 -0.500005 -0.7071
    outer loop
      vertex 7.76147 11.3304 2.16825
      vertex -1.53319 1.53319 2.52362
      vertex -1.78447 1.78447 2.16825
    endloop
  endfacet
  facet normal 0.397457 -0.397456 -0.827077
    outer loop
      vertex -2.33184 2.33184 1.52786
      vertex 6.92018 12.1717 1.24538
      vertex 7.2141 11.8778 1.52786
    endloop
  endfacet
  facet normal 0.397447 -0.397447 -0.827086
    outer loop
      vertex 6.92018 12.1717 1.24538
      vertex -2.33184 2.33184 1.52786
      vertex -2.62576 2.62576 1.24538
    endloop
  endfacet
  facet normal 0.467604 -0.467605 -0.750128
    outer loop
      vertex -1.78447 1.78447 2.16825
      vertex 7.4949 11.597 1.83589
      vertex 7.76147 11.3304 2.16825
    endloop
  endfacet
  facet normal 0.46762 -0.467619 -0.75011
    outer loop
      vertex 7.4949 11.597 1.83589
      vertex -1.78447 1.78447 2.16825
      vertex -2.05104 2.05104 1.83589
    endloop
  endfacet
  facet normal 0.530418 -0.530419 -0.661296
    outer loop
      vertex -1.29817 1.29817 2.90061
      vertex 8.01276 11.0791 2.52362
      vertex 8.24777 10.8441 2.90061
    endloop
  endfacet
  facet normal 0.530403 -0.530405 -0.66132
    outer loop
      vertex 8.01276 11.0791 2.52362
      vertex -1.29817 1.29817 2.90061
      vertex -1.53319 1.53319 2.52362
    endloop
  endfacet
  facet normal 0.630016 -0.630013 -0.454052
    outer loop
      vertex 9.00756 10.0843 4.59377
      vertex -0.699715 0.699715 4.14597
      vertex 8.84623 10.2457 4.14597
    endloop
  endfacet
  facet normal 0.630038 -0.630039 -0.453985
    outer loop
      vertex -0.699715 0.699715 4.14597
      vertex 9.00756 10.0843 4.59377
      vertex -0.53838 0.53838 4.59377
    endloop
  endfacet
  facet normal 0.584857 -0.584857 -0.562035
    outer loop
      vertex 8.66533 10.4266 3.71339
      vertex -1.08036 1.08036 3.29772
      vertex 8.46558 10.6263 3.29772
    endloop
  endfacet
  facet normal 0.58484 -0.584838 -0.562074
    outer loop
      vertex -1.08036 1.08036 3.29772
      vertex 8.66533 10.4266 3.71339
      vertex -0.880615 0.880615 3.71339
    endloop
  endfacet
  facet normal 0.665302 -0.665302 -0.338743
    outer loop
      vertex 9.26908 9.82281 5.52786
      vertex -0.397245 0.397245 5.055
      vertex 9.1487 9.94319 5.055
    endloop
  endfacet
  facet normal 0.665302 -0.665303 -0.338741
    outer loop
      vertex -0.397245 0.397245 5.055
      vertex 9.26908 9.82281 5.52786
      vertex -0.276866 0.276866 5.52786
    endloop
  endfacet
  facet normal 0.648956 -0.648957 -0.397129
    outer loop
      vertex 9.1487 9.94319 5.055
      vertex -0.53838 0.53838 4.59377
      vertex 9.00756 10.0843 4.59377
    endloop
  endfacet
  facet normal 0.648949 -0.648949 -0.397153
    outer loop
      vertex -0.53838 0.53838 4.59377
      vertex 9.1487 9.94319 5.055
      vertex -0.397245 0.397245 5.055
    endloop
  endfacet
  facet normal 0.679031 -0.679031 -0.278988
    outer loop
      vertex 9.36822 9.72366 6.01048
      vertex -0.276866 0.276866 5.52786
      vertex 9.26908 9.82281 5.52786
    endloop
  endfacet
  facet normal 0.679031 -0.679031 -0.278988
    outer loop
      vertex -0.276866 0.276866 5.52786
      vertex 9.36822 9.72366 6.01048
      vertex -0.177721 0.177721 6.01048
    endloop
  endfacet
  facet normal 0.698401 -0.698401 -0.156437
    outer loop
      vertex 9.44574 9.64614 6.50095
      vertex -0.0446062 0.0446062 6.99733
      vertex -0.100199 0.100199 6.50095
    endloop
  endfacet
  facet normal 0.6984 -0.6984 -0.156443
    outer loop
      vertex -0.0446062 0.0446062 6.99733
      vertex 9.44574 9.64614 6.50095
      vertex 9.50134 9.59055 6.99733
    endloop
  endfacet
  facet normal 0.690078 -0.690078 -0.218137
    outer loop
      vertex 9.44574 9.64614 6.50095
      vertex -0.177721 0.177721 6.01048
      vertex 9.36822 9.72366 6.01048
    endloop
  endfacet
  facet normal 0.690078 -0.690077 -0.218143
    outer loop
      vertex -0.177721 0.177721 6.01048
      vertex 9.44574 9.64614 6.50095
      vertex -0.100199 0.100199 6.50095
    endloop
  endfacet
  facet normal 0.703969 -0.703969 -0.0940971
    outer loop
      vertex 9.53478 9.55711 7.49768
      vertex -0.0446062 0.0446062 6.99733
      vertex 9.50134 9.59055 6.99733
    endloop
  endfacet
  facet normal 0.703969 -0.703969 -0.0941054
    outer loop
      vertex -0.0446062 0.0446062 6.99733
      vertex 9.53478 9.55711 7.49768
      vertex -0.0111632 0.0111632 7.49768
    endloop
  endfacet
  facet normal 0.359944 -0.359944 -0.860744
    outer loop
      vertex -2.62576 2.62576 1.24538
      vertex 6.6143 12.4776 0.989547
      vertex 6.92018 12.1717 1.24538
    endloop
  endfacet
  facet normal 0.359953 -0.359953 -0.860737
    outer loop
      vertex 6.6143 12.4776 0.989547
      vertex -2.62576 2.62576 1.24538
      vertex -2.93164 2.93164 0.989547
    endloop
  endfacet
  facet normal 0.280803 -0.280804 -0.917769
    outer loop
      vertex -3.24828 3.24828 0.761384
      vertex 5.97151 13.1204 0.561789
      vertex 6.29766 12.7942 0.761384
    endloop
  endfacet
  facet normal 0.280822 -0.280821 -0.917757
    outer loop
      vertex 5.97151 13.1204 0.561789
      vertex -3.24828 3.24828 0.761384
      vertex -3.57443 3.57443 0.561789
    endloop
  endfacet
  facet normal 0.321035 -0.321035 -0.890996
    outer loop
      vertex -2.93164 2.93164 0.989547
      vertex 6.29766 12.7942 0.761384
      vertex 6.6143 12.4776 0.989547
    endloop
  endfacet
  facet normal 0.321019 -0.321019 -0.891007
    outer loop
      vertex 6.29766 12.7942 0.761384
      vertex -2.93164 2.93164 0.989547
      vertex -3.24828 3.24828 0.761384
    endloop
  endfacet
  facet normal 0.43339 -0.433389 -0.790156
    outer loop
      vertex -2.05104 2.05104 1.83589
      vertex 7.2141 11.8778 1.52786
      vertex 7.4949 11.597 1.83589
    endloop
  endfacet
  facet normal 0.43339 -0.433389 -0.790156
    outer loop
      vertex 7.2141 11.8778 1.52786
      vertex -2.05104 2.05104 1.83589
      vertex -2.33184 2.33184 1.52786
    endloop
  endfacet
  facet normal 0.239546 -0.239545 -0.94087
    outer loop
      vertex -3.57443 3.57443 0.561789
      vertex 5.63715 13.4547 0.391548
      vertex 5.97151 13.1204 0.561789
    endloop
  endfacet
  facet normal 0.239526 -0.239527 -0.940879
    outer loop
      vertex 5.63715 13.4547 0.391548
      vertex -3.57443 3.57443 0.561789
      vertex -3.90879 3.90879 0.391548
    endloop
  endfacet
  facet normal 0.154253 -0.154253 -0.975916
    outer loop
      vertex -4.25005 4.25005 0.251335
      vertex 4.94908 14.1428 0.141703
      vertex 5.29589 13.796 0.251335
    endloop
  endfacet
  facet normal 0.154247 -0.154247 -0.975918
    outer loop
      vertex 4.94908 14.1428 0.141703
      vertex -4.25005 4.25005 0.251335
      vertex -4.59687 4.59687 0.141703
    endloop
  endfacet
  facet normal 0.197266 -0.197267 -0.960298
    outer loop
      vertex -3.90879 3.90879 0.391548
      vertex 5.29589 13.796 0.251335
      vertex 5.63715 13.4547 0.391548
    endloop
  endfacet
  facet normal 0.197277 -0.197277 -0.960293
    outer loop
      vertex 5.29589 13.796 0.251335
      vertex -3.90879 3.90879 0.391548
      vertex -4.25005 4.25005 0.251335
    endloop
  endfacet
  facet normal 0.110616 -0.110616 -0.987688
    outer loop
      vertex -4.59687 4.59687 0.141703
      vertex 4.59808 14.4938 0.0630827
      vertex 4.94908 14.1428 0.141703
    endloop
  endfacet
  facet normal 0.110619 -0.110619 -0.987688
    outer loop
      vertex 4.59808 14.4938 0.0630827
      vertex -4.59687 4.59687 0.141703
      vertex -4.94786 4.94786 0.0630827
    endloop
  endfacet
  facet normal 0.558729 -0.558729 -0.612898
    outer loop
      vertex -1.08036 1.08036 3.29772
      vertex 8.24777 10.8441 2.90061
      vertex 8.46558 10.6263 3.29772
    endloop
  endfacet
  facet normal 0.558724 -0.558724 -0.612907
    outer loop
      vertex 8.24777 10.8441 2.90061
      vertex -1.08036 1.08036 3.29772
      vertex -1.29817 1.29817 2.90061
    endloop
  endfacet
  facet normal 0.608635 -0.608633 -0.509048
    outer loop
      vertex 8.66533 10.4266 3.71339
      vertex -0.699715 0.699715 4.14597
      vertex -0.880615 0.880615 3.71339
    endloop
  endfacet
  facet normal 0.608635 -0.608633 -0.509048
    outer loop
      vertex -0.699715 0.699715 4.14597
      vertex 8.66533 10.4266 3.71339
      vertex 8.84623 10.2457 4.14597
    endloop
  endfacet
  facet normal 0.0661987 -0.0661987 -0.995608
    outer loop
      vertex -4.94786 4.94786 0.0630827
      vertex 4.59619 14.4957 0.0628307
      vertex 4.59808 14.4938 0.0630827
    endloop
  endfacet
  facet normal 0.0663724 -0.0663723 -0.995585
    outer loop
      vertex 4.59619 14.4957 0.0628307
      vertex -4.94786 4.94786 0.0630827
      vertex -4.94975 4.94975 0.0628307
    endloop
  endfacet
  facet normal 0.707107 -0.707106 0
    outer loop
      vertex -4.94975 4.94975 0.0628307
      vertex 4.59619 14.4957 0
      vertex 4.59619 14.4957 0.0628307
    endloop
  endfacet
  facet normal 0.707107 -0.707106 0
    outer loop
      vertex 4.59619 14.4957 0
      vertex -4.94975 4.94975 0.0628307
      vertex -4.94975 4.94975 0
    endloop
  endfacet
  facet normal -0.707107 -0.707107 0
    outer loop
      vertex -10.726 10.726 15.9549
      vertex -13.6472 13.6472 26.25
      vertex -13.6472 13.6472 0
    endloop
  endfacet
  facet normal -0.707107 -0.707107 0
    outer loop
      vertex -13.6472 13.6472 26.25
      vertex -10.7425 10.7425 16.202
      vertex -10.748 10.748 16.45
    endloop
  endfacet
  facet normal -0.707107 -0.707107 0
    outer loop
      vertex -13.6472 13.6472 26.25
      vertex -10.726 10.726 15.9549
      vertex -10.7425 10.7425 16.202
    endloop
  endfacet
  facet normal -0.707107 -0.707107 0
    outer loop
      vertex -13.6472 13.6472 0
      vertex -10.6986 10.6986 15.7098
      vertex -10.726 10.726 15.9549
    endloop
  endfacet
  facet normal -0.707107 -0.707107 0
    outer loop
      vertex -13.6472 13.6472 0
      vertex -10.6603 10.6603 15.4677
      vertex -10.6986 10.6986 15.7098
    endloop
  endfacet
  facet normal -0.707107 -0.707107 0
    outer loop
      vertex -13.6472 13.6472 0
      vertex -10.6113 10.6113 15.2294
      vertex -10.6603 10.6603 15.4677
    endloop
  endfacet
  facet normal -0.707107 -0.707107 0
    outer loop
      vertex -13.6472 13.6472 0
      vertex -10.5519 10.5519 14.9959
      vertex -10.6113 10.6113 15.2294
    endloop
  endfacet
  facet normal -0.707107 -0.707107 0
    outer loop
      vertex -13.6472 13.6472 0
      vertex -10.4822 10.4822 14.7682
      vertex -10.5519 10.5519 14.9959
    endloop
  endfacet
  facet normal -0.707107 -0.707107 0
    outer loop
      vertex -13.6472 13.6472 0
      vertex -10.4025 10.4025 14.5471
      vertex -10.4822 10.4822 14.7682
    endloop
  endfacet
  facet normal -0.707107 -0.707107 0
    outer loop
      vertex -13.6472 13.6472 0
      vertex -10.3132 10.3132 14.3335
      vertex -10.4025 10.4025 14.5471
    endloop
  endfacet
  facet normal -0.707107 -0.707107 0
    outer loop
      vertex -13.6472 13.6472 0
      vertex -10.2146 10.2146 14.1282
      vertex -10.3132 10.3132 14.3335
    endloop
  endfacet
  facet normal -0.707107 -0.707107 0
    outer loop
      vertex -13.6472 13.6472 0
      vertex -10.107 10.107 13.9322
      vertex -10.2146 10.2146 14.1282
    endloop
  endfacet
  facet normal -0.707107 -0.707107 0
    outer loop
      vertex -13.6472 13.6472 0
      vertex -9.99101 9.99101 13.746
      vertex -10.107 10.107 13.9322
    endloop
  endfacet
  facet normal -0.707107 -0.707107 0
    outer loop
      vertex -13.6472 13.6472 0
      vertex -9.86694 9.86694 13.5706
      vertex -9.99101 9.99101 13.746
    endloop
  endfacet
  facet normal -0.707107 -0.707107 0
    outer loop
      vertex -13.6472 13.6472 0
      vertex -9.73532 9.73532 13.4065
      vertex -9.86694 9.86694 13.5706
    endloop
  endfacet
  facet normal -0.707107 -0.707107 0
    outer loop
      vertex -13.6472 13.6472 0
      vertex -9.59668 9.59668 13.2544
      vertex -9.73532 9.73532 13.4065
    endloop
  endfacet
  facet normal -0.707107 -0.707107 0
    outer loop
      vertex -13.6472 13.6472 0
      vertex -9.45155 9.45155 13.1149
      vertex -9.59668 9.59668 13.2544
    endloop
  endfacet
  facet normal -0.707107 -0.707107 0
    outer loop
      vertex -13.6472 13.6472 0
      vertex -9.30052 9.30052 12.9886
      vertex -9.45155 9.45155 13.1149
    endloop
  endfacet
  facet normal -0.707107 -0.707107 0
    outer loop
      vertex -13.6472 13.6472 0
      vertex -9.14418 9.14418 12.8759
      vertex -9.30052 9.30052 12.9886
    endloop
  endfacet
  facet normal -0.707107 -0.707107 0
    outer loop
      vertex -13.6472 13.6472 0
      vertex -8.98315 8.98315 12.7774
      vertex -9.14418 9.14418 12.8759
    endloop
  endfacet
  facet normal -0.707107 -0.707107 0
    outer loop
      vertex -13.6472 13.6472 0
      vertex -8.81806 8.81806 12.6933
      vertex -8.98315 8.98315 12.7774
    endloop
  endfacet
  facet normal -0.707107 -0.707107 0
    outer loop
      vertex -13.6472 13.6472 0
      vertex -8.64956 8.64956 12.6241
      vertex -8.81806 8.81806 12.6933
    endloop
  endfacet
  facet normal -0.707107 -0.707107 0
    outer loop
      vertex -13.6472 13.6472 0
      vertex -8.47832 8.47832 12.57
      vertex -8.64956 8.64956 12.6241
    endloop
  endfacet
  facet normal -0.707107 -0.707107 0
    outer loop
      vertex -13.6472 13.6472 0
      vertex -8.30502 8.30502 12.5311
      vertex -8.47832 8.47832 12.57
    endloop
  endfacet
  facet normal -0.707107 -0.707107 0
    outer loop
      vertex -4.94975 4.94975 0.0628307
      vertex -8.30502 8.30502 12.5311
      vertex -13.6472 13.6472 0
    endloop
  endfacet
  facet normal -0.707107 -0.707107 0
    outer loop
      vertex -8.30502 8.30502 12.5311
      vertex -4.94975 4.94975 0.0628307
      vertex -8.13033 8.13033 12.5078
    endloop
  endfacet
  facet normal -0.707107 -0.707107 0
    outer loop
      vertex -8.13033 8.13033 12.5078
      vertex -4.94975 4.94975 0.0628307
      vertex -7.95495 7.95495 12.5
    endloop
  endfacet
  facet normal -0.707107 -0.707107 0
    outer loop
      vertex -7.95495 7.95495 12.5
      vertex -4.94975 4.94975 0.0628307
      vertex -7.77957 7.77957 12.5078
    endloop
  endfacet
  facet normal -0.707107 -0.707107 0
    outer loop
      vertex -7.77957 7.77957 12.5078
      vertex -4.94975 4.94975 0.0628307
      vertex -7.60489 7.60489 12.5311
    endloop
  endfacet
  facet normal -0.707107 -0.707107 0
    outer loop
      vertex -1.08036 1.08036 3.29772
      vertex -7.60489 7.60489 12.5311
      vertex -4.94975 4.94975 0.0628307
    endloop
  endfacet
  facet normal -0.707107 -0.707107 0
    outer loop
      vertex -0.880615 0.880615 3.71339
      vertex -7.60489 7.60489 12.5311
      vertex -1.08036 1.08036 3.29772
    endloop
  endfacet
  facet normal -0.707107 -0.707107 0
    outer loop
      vertex -0.699715 0.699715 4.14597
      vertex -7.60489 7.60489 12.5311
      vertex -0.880615 0.880615 3.71339
    endloop
  endfacet
  facet normal -0.707107 -0.707107 0
    outer loop
      vertex -0.53838 0.53838 4.59377
      vertex -7.60489 7.60489 12.5311
      vertex -0.699715 0.699715 4.14597
    endloop
  endfacet
  facet normal -0.707107 -0.707107 0
    outer loop
      vertex -7.60489 7.60489 12.5311
      vertex -0.397245 0.397245 5.055
      vertex -7.43158 7.43158 12.57
    endloop
  endfacet
  facet normal -0.707107 -0.707107 0
    outer loop
      vertex -0.276866 0.276866 5.52786
      vertex -7.43158 7.43158 12.57
      vertex -0.397245 0.397245 5.055
    endloop
  endfacet
  facet normal -0.707107 -0.707107 0
    outer loop
      vertex -0.177721 0.177721 6.01048
      vertex -7.43158 7.43158 12.57
      vertex -0.276866 0.276866 5.52786
    endloop
  endfacet
  facet normal -0.707107 -0.707107 0
    outer loop
      vertex -0.100199 0.100199 6.50095
      vertex -7.43158 7.43158 12.57
      vertex -0.177721 0.177721 6.01048
    endloop
  endfacet
  facet normal -0.707107 -0.707107 0
    outer loop
      vertex -0.0446062 0.0446062 6.99733
      vertex -7.26034 7.26034 12.6241
      vertex -0.100199 0.100199 6.50095
    endloop
  endfacet
  facet normal -0.707107 -0.707107 0
    outer loop
      vertex -0.0111632 0.0111632 7.49768
      vertex -7.26034 7.26034 12.6241
      vertex -0.0446062 0.0446062 6.99733
    endloop
  endfacet
  facet normal -0.707107 -0.707107 0
    outer loop
      vertex 0 0 8
      vertex -7.09184 7.09184 12.6933
      vertex -0.0111632 0.0111632 7.49768
    endloop
  endfacet
  facet normal -0.707107 -0.707107 -0
    outer loop
      vertex -4.94975 4.94975 0.0628307
      vertex -13.6472 13.6472 0
      vertex -4.94975 4.94975 0
    endloop
  endfacet
  facet normal -0.707107 -0.707107 0
    outer loop
      vertex -7.09184 7.09184 12.6933
      vertex 0 0 8
      vertex -6.92675 6.92675 12.7774
    endloop
  endfacet
  facet normal -0.707107 -0.707107 0
    outer loop
      vertex -6.92675 6.92675 12.7774
      vertex 0 0 8
      vertex -6.76572 6.76572 12.8759
    endloop
  endfacet
  facet normal -0.707107 -0.707107 0
    outer loop
      vertex -6.60938 6.60938 12.9886
      vertex 0 0 8
      vertex -6.45835 6.45835 13.1149
    endloop
  endfacet
  facet normal -0.707107 -0.707107 0
    outer loop
      vertex -6.31322 6.31322 13.2544
      vertex 0 0 8
      vertex -6.17458 6.17458 13.4065
    endloop
  endfacet
  facet normal -0.707107 -0.707107 0
    outer loop
      vertex -6.17458 6.17458 13.4065
      vertex 0 0 8
      vertex -6.04296 6.04296 13.5706
    endloop
  endfacet
  facet normal -0.707107 -0.707107 0
    outer loop
      vertex -5.91889 5.91889 13.746
      vertex 0 0 8
      vertex -5.80285 5.80285 13.9322
    endloop
  endfacet
  facet normal -0.707107 -0.707107 0
    outer loop
      vertex -5.69531 5.69531 14.1282
      vertex 0 0 8
      vertex -5.59668 5.59668 14.3335
    endloop
  endfacet
  facet normal -0.707107 -0.707107 0
    outer loop
      vertex -5.59668 5.59668 14.3335
      vertex 0 0 8
      vertex -5.50736 5.50736 14.5471
    endloop
  endfacet
  facet normal -0.707107 -0.707107 0
    outer loop
      vertex -5.4277 5.4277 14.7682
      vertex 0 0 8
      vertex -5.35802 5.35802 14.9959
    endloop
  endfacet
  facet normal -0.707107 -0.707107 0
    outer loop
      vertex -5.29858 5.29858 15.2294
      vertex 0 0 8
      vertex -5.24963 5.24963 15.4677
    endloop
  endfacet
  facet normal -0.707107 -0.707107 0
    outer loop
      vertex -5.21135 5.21135 15.7098
      vertex 0 0 8
      vertex -5.1839 5.1839 15.9549
    endloop
  endfacet
  facet normal -0.707107 -0.707107 0
    outer loop
      vertex -5.1839 5.1839 15.9549
      vertex 0 0 8
      vertex -5.16739 5.16739 16.202
    endloop
  endfacet
  facet normal -0.707107 -0.707107 0
    outer loop
      vertex -5.16739 5.16739 16.202
      vertex 0 0 8
      vertex -5.16188 5.16188 16.45
    endloop
  endfacet
  facet normal -0.707107 -0.707107 0
    outer loop
      vertex -4.59687 4.59687 0.141703
      vertex -4.94975 4.94975 0.0628307
      vertex -4.94786 4.94786 0.0630827
    endloop
  endfacet
  facet normal -0.707107 -0.707107 0
    outer loop
      vertex -4.94975 4.94975 0.0628307
      vertex -4.59687 4.59687 0.141703
      vertex -2.33184 2.33184 1.52786
    endloop
  endfacet
  facet normal -0.707107 -0.707107 0
    outer loop
      vertex -2.33184 2.33184 1.52786
      vertex -4.59687 4.59687 0.141703
      vertex -4.25005 4.25005 0.251335
    endloop
  endfacet
  facet normal -0.707107 -0.707107 0
    outer loop
      vertex -2.33184 2.33184 1.52786
      vertex -4.25005 4.25005 0.251335
      vertex -3.90879 3.90879 0.391548
    endloop
  endfacet
  facet normal -0.707107 -0.707107 0
    outer loop
      vertex -2.33184 2.33184 1.52786
      vertex -3.90879 3.90879 0.391548
      vertex -3.57443 3.57443 0.561789
    endloop
  endfacet
  facet normal -0.707107 -0.707107 0
    outer loop
      vertex -2.33184 2.33184 1.52786
      vertex -3.57443 3.57443 0.561789
      vertex -3.24828 3.24828 0.761384
    endloop
  endfacet
  facet normal -0.707107 -0.707107 0
    outer loop
      vertex -2.62576 2.62576 1.24538
      vertex -3.24828 3.24828 0.761384
      vertex -2.93164 2.93164 0.989547
    endloop
  endfacet
  facet normal -0.707107 -0.707107 0
    outer loop
      vertex -2.33184 2.33184 1.52786
      vertex -3.24828 3.24828 0.761384
      vertex -2.62576 2.62576 1.24538
    endloop
  endfacet
  facet normal -0.707107 -0.707107 0
    outer loop
      vertex -4.94975 4.94975 0.0628307
      vertex -2.33184 2.33184 1.52786
      vertex -2.05104 2.05104 1.83589
    endloop
  endfacet
  facet normal -0.707107 -0.707107 0
    outer loop
      vertex -4.94975 4.94975 0.0628307
      vertex -2.05104 2.05104 1.83589
      vertex -1.78447 1.78447 2.16825
    endloop
  endfacet
  facet normal -0.707107 -0.707107 0
    outer loop
      vertex -4.94975 4.94975 0.0628307
      vertex -1.78447 1.78447 2.16825
      vertex -1.53319 1.53319 2.52362
    endloop
  endfacet
  facet normal -0.707107 -0.707107 0
    outer loop
      vertex -4.94975 4.94975 0.0628307
      vertex -1.53319 1.53319 2.52362
      vertex -1.29817 1.29817 2.90061
    endloop
  endfacet
  facet normal -0.707107 -0.707107 0
    outer loop
      vertex -4.94975 4.94975 0.0628307
      vertex -1.29817 1.29817 2.90061
      vertex -1.08036 1.08036 3.29772
    endloop
  endfacet
  facet normal -0.707107 -0.707107 0
    outer loop
      vertex -0.397245 0.397245 5.055
      vertex -7.60489 7.60489 12.5311
      vertex -0.53838 0.53838 4.59377
    endloop
  endfacet
  facet normal -0.707107 -0.707107 0
    outer loop
      vertex -7.43158 7.43158 12.57
      vertex -0.100199 0.100199 6.50095
      vertex -7.26034 7.26034 12.6241
    endloop
  endfacet
  facet normal -0.707107 -0.707107 0
    outer loop
      vertex -7.26034 7.26034 12.6241
      vertex -0.0111632 0.0111632 7.49768
      vertex -7.09184 7.09184 12.6933
    endloop
  endfacet
  facet normal -0.707107 -0.707107 0
    outer loop
      vertex -6.76572 6.76572 12.8759
      vertex 0 0 8
      vertex -6.60938 6.60938 12.9886
    endloop
  endfacet
  facet normal -0.707107 -0.707107 0
    outer loop
      vertex -6.45835 6.45835 13.1149
      vertex 0 0 8
      vertex -6.31322 6.31322 13.2544
    endloop
  endfacet
  facet normal -0.707107 -0.707107 0
    outer loop
      vertex -6.04296 6.04296 13.5706
      vertex 0 0 8
      vertex -5.91889 5.91889 13.746
    endloop
  endfacet
  facet normal -0.707107 -0.707107 0
    outer loop
      vertex -5.80285 5.80285 13.9322
      vertex 0 0 8
      vertex -5.69531 5.69531 14.1282
    endloop
  endfacet
  facet normal -0.707107 -0.707107 0
    outer loop
      vertex -5.50736 5.50736 14.5471
      vertex 0 0 8
      vertex -5.4277 5.4277 14.7682
    endloop
  endfacet
  facet normal -0.707107 -0.707107 0
    outer loop
      vertex -5.35802 5.35802 14.9959
      vertex 0 0 8
      vertex -5.29858 5.29858 15.2294
    endloop
  endfacet
  facet normal -0.707107 -0.707107 0
    outer loop
      vertex -5.24963 5.24963 15.4677
      vertex 0 0 8
      vertex -5.21135 5.21135 15.7098
    endloop
  endfacet
  facet normal -0.707107 -0.707107 -0
    outer loop
      vertex 0 0 26.25
      vertex -5.16188 5.16188 16.45
      vertex 0 0 8
    endloop
  endfacet
  facet normal -0.707107 -0.707107 0
    outer loop
      vertex -5.16188 5.16188 16.45
      vertex 0 0 26.25
      vertex -5.16188 5.16188 26.25
    endloop
  endfacet
  facet normal -0.707107 -0.707107 0
    outer loop
      vertex -13.6472 13.6472 26.25
      vertex -10.748 10.748 16.45
      vertex -10.748 10.748 26.25
    endloop
  endfacet
  facet normal 0 0 1
    outer loop
      vertex 9.54594 9.54594 26.25
      vertex -3.3941 19.6576 26.25
      vertex 6.6251 9.63836 26.25
    endloop
  endfacet
  facet normal 0 0 1
    outer loop
      vertex -4.10122 23.1931 26.25
      vertex -3.3941 19.6576 26.25
      vertex 9.54594 9.54594 26.25
    endloop
  endfacet
  facet normal -0 0 1
    outer loop
      vertex -6.31093 20.9834 26.25
      vertex -3.3941 19.6576 26.25
      vertex -4.10122 23.1931 26.25
    endloop
  endfacet
  facet normal 0 0 1
    outer loop
      vertex -3.3941 19.6576 26.25
      vertex -6.31093 20.9834 26.25
      vertex -4.1896 18.8621 26.25
    endloop
  endfacet
  facet normal 0 0 1
    outer loop
      vertex 6.6251 9.63836 26.25
      vertex 0 0 26.25
      vertex 9.54594 9.54594 26.25
    endloop
  endfacet
  facet normal -0 0 1
    outer loop
      vertex -0.0924136 2.92084 26.25
      vertex 0 0 26.25
      vertex 6.6251 9.63836 26.25
    endloop
  endfacet
  facet normal -0 0 1
    outer loop
      vertex -5.16188 5.16188 26.25
      vertex -0.0924136 2.92084 26.25
      vertex -3.74767 6.57609 26.25
    endloop
  endfacet
  facet normal 0 0 1
    outer loop
      vertex -0.0924136 2.92084 26.25
      vertex -5.16188 5.16188 26.25
      vertex 0 0 26.25
    endloop
  endfacet
  facet normal 0 0 1
    outer loop
      vertex -11.4375 15.8569 26.25
      vertex -10.1116 12.94 26.25
      vertex -9.31612 13.7355 26.25
    endloop
  endfacet
  facet normal -0 0 1
    outer loop
      vertex -13.6472 13.6472 26.25
      vertex -10.1116 12.94 26.25
      vertex -11.4375 15.8569 26.25
    endloop
  endfacet
  facet normal 0 0 1
    outer loop
      vertex -10.1116 12.94 26.25
      vertex -13.6472 13.6472 26.25
      vertex -10.748 10.748 26.25
    endloop
  endfacet
  facet normal 0 0 1
    outer loop
      vertex -9.33381 12.1622 26.25
      vertex -10.1116 12.94 26.25
      vertex -10.748 10.748 26.25
    endloop
  endfacet
  facet normal -0.707105 0.707108 0
    outer loop
      vertex -4.10122 23.1931 26.25
      vertex -6.31093 20.9834 2
      vertex -6.31093 20.9834 26.25
    endloop
  endfacet
  facet normal -0.707102 0.707112 7.13198e-06
    outer loop
      vertex -6.31093 20.9834 2
      vertex -4.10122 23.1931 0
      vertex -11.4375 15.8569 2
    endloop
  endfacet
  facet normal -0.707105 0.707108 0
    outer loop
      vertex -4.10122 23.1931 0
      vertex -6.31093 20.9834 2
      vertex -4.10122 23.1931 26.25
    endloop
  endfacet
  facet normal -0.707107 0.707107 0
    outer loop
      vertex -11.4375 15.8569 2
      vertex -13.6472 13.6472 26.25
      vertex -11.4375 15.8569 26.25
    endloop
  endfacet
  facet normal -0.707107 0.707107 0
    outer loop
      vertex -11.4375 15.8569 2
      vertex -13.6472 13.6472 0
      vertex -13.6472 13.6472 26.25
    endloop
  endfacet
  facet normal -0.707104 0.70711 -6.54726e-06
    outer loop
      vertex -13.6472 13.6472 0
      vertex -11.4375 15.8569 2
      vertex -4.10122 23.1931 0
    endloop
  endfacet
  facet normal -0.701145 0.701143 0.129591
    outer loop
      vertex -2.33344 5.16187 2
      vertex 6.6251 9.63836 26.25
      vertex 4.38407 11.8794 2
    endloop
  endfacet
  facet normal -0.701145 0.701144 0.12959
    outer loop
      vertex 6.6251 9.63836 26.25
      vertex -2.33344 5.16187 2
      vertex -0.0924136 2.92084 26.25
    endloop
  endfacet
  facet normal 0.707116 -0.707098 0
    outer loop
      vertex -10.1116 12.94 26.25
      vertex -9.31612 13.7355 2
      vertex -9.31612 13.7355 26.25
    endloop
  endfacet
  facet normal 0.707116 -0.707098 0
    outer loop
      vertex -9.31612 13.7355 2
      vertex -10.1116 12.94 26.25
      vertex -10.1116 12.94 2
    endloop
  endfacet
  facet normal 0.707107 -0.707107 0
    outer loop
      vertex -4.1896 18.8621 26.25
      vertex -3.3941 19.6576 11.4
      vertex -3.3941 19.6576 26.25
    endloop
  endfacet
  facet normal 0.707107 -0.707107 0
    outer loop
      vertex -4.1896 18.8621 2
      vertex -3.3941 19.6576 11.4
      vertex -4.1896 18.8621 26.25
    endloop
  endfacet
  facet normal 0.707107 -0.707107 0
    outer loop
      vertex -3.3941 19.6576 11.4
      vertex -4.1896 18.8621 2
      vertex -3.3941 19.6576 2
    endloop
  endfacet
  facet normal 0.707106 0.707107 0
    outer loop
      vertex -0.0924136 2.92084 26.25
      vertex -3.74767 6.57609 16.45
      vertex -3.74767 6.57609 26.25
    endloop
  endfacet
  facet normal 0.707106 0.707108 2.91649e-07
    outer loop
      vertex -3.74767 6.57609 16.45
      vertex -0.0924136 2.92084 26.25
      vertex -2.33344 5.16187 2
    endloop
  endfacet
  facet normal 0.707111 0.707102 -0
    outer loop
      vertex -9.33381 12.1622 16.45
      vertex -10.1116 12.94 26.25
      vertex -9.33381 12.1622 26.25
    endloop
  endfacet
  facet normal 0.707111 0.707102 0
    outer loop
      vertex -10.1116 12.94 26.25
      vertex -9.33381 12.1622 16.45
      vertex -10.1116 12.94 2
    endloop
  endfacet
  facet normal 0.706922 0.707291 2.03302e-05
    outer loop
      vertex -9.3283 12.1567 16.202
      vertex -10.1116 12.94 2
      vertex -9.33381 12.1622 16.45
    endloop
  endfacet
  facet normal 0.706872 0.707341 2.58804e-05
    outer loop
      vertex -9.31178 12.1402 15.9549
      vertex -10.1116 12.94 2
      vertex -9.3283 12.1567 16.202
    endloop
  endfacet
  facet normal 0.706763 0.707451 3.84226e-05
    outer loop
      vertex -9.28434 12.1128 15.7098
      vertex -10.1116 12.94 2
      vertex -9.31178 12.1402 15.9549
    endloop
  endfacet
  facet normal 0.707233 0.70698 -1.83714e-05
    outer loop
      vertex -9.24606 12.0745 15.4677
      vertex -10.1116 12.94 2
      vertex -9.28434 12.1128 15.7098
    endloop
  endfacet
  facet normal 0.707378 0.706836 -3.69424e-05
    outer loop
      vertex -9.19711 12.0255 15.2294
      vertex -10.1116 12.94 2
      vertex -9.24606 12.0745 15.4677
    endloop
  endfacet
  facet normal 0.70692 0.707293 2.62958e-05
    outer loop
      vertex -9.13767 11.9661 14.9959
      vertex -10.1116 12.94 2
      vertex -9.19711 12.0255 15.2294
    endloop
  endfacet
  facet normal 0.707145 0.707068 -7.41907e-06
    outer loop
      vertex -9.06798 11.8964 14.7682
      vertex -10.1116 12.94 2
      vertex -9.13767 11.9661 14.9959
    endloop
  endfacet
  facet normal 0.706925 0.707289 2.86763e-05
    outer loop
      vertex -8.98833 11.8168 14.5471
      vertex -10.1116 12.94 2
      vertex -9.06798 11.8964 14.7682
    endloop
  endfacet
  facet normal 0.707364 0.70685 -4.99311e-05
    outer loop
      vertex -8.89901 11.7274 14.3335
      vertex -10.1116 12.94 2
      vertex -8.98833 11.8168 14.5471
    endloop
  endfacet
  facet normal 0.707018 0.707196 1.80317e-05
    outer loop
      vertex -8.80038 11.6288 14.1282
      vertex -10.1116 12.94 2
      vertex -8.89901 11.7274 14.3335
    endloop
  endfacet
  facet normal 0.706996 0.707218 2.27838e-05
    outer loop
      vertex -8.69284 11.5213 13.9322
      vertex -10.1116 12.94 2
      vertex -8.80038 11.6288 14.1282
    endloop
  endfacet
  facet normal 0.707258 0.706956 -3.94849e-05
    outer loop
      vertex -8.5768 11.4052 13.746
      vertex -10.1116 12.94 2
      vertex -8.69284 11.5213 13.9322
    endloop
  endfacet
  facet normal 0.706938 0.707275 4.40113e-05
    outer loop
      vertex -8.45273 11.2812 13.5706
      vertex -10.1116 12.94 2
      vertex -8.5768 11.4052 13.746
    endloop
  endfacet
  facet normal 0.707287 0.706927 -5.58892e-05
    outer loop
      vertex -8.32111 11.1495 13.4065
      vertex -10.1116 12.94 2
      vertex -8.45273 11.2812 13.5706
    endloop
  endfacet
  facet normal 0.706998 0.707215 3.46812e-05
    outer loop
      vertex -8.18246 11.0109 13.2544
      vertex -10.1116 12.94 2
      vertex -8.32111 11.1495 13.4065
    endloop
  endfacet
  facet normal 0.707064 0.70715 1.21844e-05
    outer loop
      vertex -8.03734 10.8658 13.1149
      vertex -10.1116 12.94 2
      vertex -8.18246 11.0109 13.2544
    endloop
  endfacet
  facet normal 0.707247 0.706966 -5.61956e-05
    outer loop
      vertex -7.88631 10.7147 12.9886
      vertex -10.1116 12.94 2
      vertex -8.03734 10.8658 13.1149
    endloop
  endfacet
  facet normal 0.707028 0.707186 3.25351e-05
    outer loop
      vertex -7.72997 10.5584 12.8759
      vertex -10.1116 12.94 2
      vertex -7.88631 10.7147 12.9886
    endloop
  endfacet
  facet normal 0.707048 0.707165 2.37218e-05
    outer loop
      vertex -7.56894 10.3974 12.7774
      vertex -10.1116 12.94 2
      vertex -7.72997 10.5584 12.8759
    endloop
  endfacet
  facet normal 0.707106 0.707108 -3.51428e-06
    outer loop
      vertex -7.40384 10.2323 12.6933
      vertex -10.1116 12.94 2
      vertex -7.56894 10.3974 12.7774
    endloop
  endfacet
  facet normal 0.707125 0.707089 -1.32194e-05
    outer loop
      vertex -7.23535 10.0638 12.6241
      vertex -10.1116 12.94 2
      vertex -7.40384 10.2323 12.6933
    endloop
  endfacet
  facet normal 0.707163 0.70705 -3.39583e-05
    outer loop
      vertex -7.06411 9.89253 12.57
      vertex -10.1116 12.94 2
      vertex -7.23535 10.0638 12.6241
    endloop
  endfacet
  facet normal 0.707087 0.707126 9.79195e-06
    outer loop
      vertex -6.8908 9.71923 12.5311
      vertex -10.1116 12.94 2
      vertex -7.06411 9.89253 12.57
    endloop
  endfacet
  facet normal 0.707126 0.707087 -1.38301e-05
    outer loop
      vertex -6.71612 9.54454 12.5078
      vertex -10.1116 12.94 2
      vertex -6.8908 9.71923 12.5311
    endloop
  endfacet
  facet normal 0.707107 0.707107 -1.3268e-06
    outer loop
      vertex -6.54074 9.36916 12.5
      vertex -10.1116 12.94 2
      vertex -6.71612 9.54454 12.5078
    endloop
  endfacet
  facet normal 0.707086 0.707127 1.2555e-05
    outer loop
      vertex -6.36536 9.19379 12.5078
      vertex -10.1116 12.94 2
      vertex -6.54074 9.36916 12.5
    endloop
  endfacet
  facet normal 0.707107 0.707107 6.50967e-16
    outer loop
      vertex -2.33344 5.16187 2
      vertex -6.36536 9.19379 12.5078
      vertex -6.19067 9.0191 12.5311
    endloop
  endfacet
  facet normal 0.707107 0.707107 -1.27192e-15
    outer loop
      vertex -2.33344 5.16187 2
      vertex -6.19067 9.0191 12.5311
      vertex -6.01737 8.8458 12.57
    endloop
  endfacet
  facet normal 0.707107 0.707107 1.25026e-15
    outer loop
      vertex -2.33344 5.16187 2
      vertex -6.01737 8.8458 12.57
      vertex -5.84613 8.67456 12.6241
    endloop
  endfacet
  facet normal 0.707107 0.707107 0
    outer loop
      vertex -2.33344 5.16187 2
      vertex -5.84613 8.67456 12.6241
      vertex -5.67763 8.50606 12.6933
    endloop
  endfacet
  facet normal 0.707107 0.707107 0
    outer loop
      vertex -2.33344 5.16187 2
      vertex -5.67763 8.50606 12.6933
      vertex -5.51254 8.34097 12.7774
    endloop
  endfacet
  facet normal 0.707125 0.707088 1.09727e-05
    outer loop
      vertex -2.33344 5.16187 2
      vertex -5.51254 8.34097 12.7774
      vertex -5.35151 8.17993 12.8759
    endloop
  endfacet
  facet normal 0.707088 0.707126 -9.91675e-06
    outer loop
      vertex -2.33344 5.16187 2
      vertex -5.35151 8.17993 12.8759
      vertex -5.19516 8.02359 12.9886
    endloop
  endfacet
  facet normal 0.707107 0.707107 6.21498e-16
    outer loop
      vertex -2.33344 5.16187 2
      vertex -5.19516 8.02359 12.9886
      vertex -5.04413 7.87256 13.1149
    endloop
  endfacet
  facet normal 0.707107 0.707107 0
    outer loop
      vertex -2.33344 5.16187 2
      vertex -5.04413 7.87256 13.1149
      vertex -4.89901 7.72744 13.2544
    endloop
  endfacet
  facet normal 0.707127 0.707086 9.30043e-06
    outer loop
      vertex -2.33344 5.16187 2
      vertex -4.89901 7.72744 13.2544
      vertex -4.76037 7.58879 13.4065
    endloop
  endfacet
  facet normal 0.707085 0.707128 -8.5444e-06
    outer loop
      vertex -2.33344 5.16187 2
      vertex -4.76037 7.58879 13.4065
      vertex -4.62875 7.45718 13.5706
    endloop
  endfacet
  facet normal 0.707129 0.707085 8.82935e-06
    outer loop
      vertex -2.33344 5.16187 2
      vertex -4.62875 7.45718 13.5706
      vertex -4.50468 7.3331 13.746
    endloop
  endfacet
  facet normal 0.707083 0.707131 -8.22329e-06
    outer loop
      vertex -2.33344 5.16187 2
      vertex -4.50468 7.3331 13.746
      vertex -4.38864 7.21707 13.9322
    endloop
  endfacet
  facet normal 0.707107 0.707107 0
    outer loop
      vertex -2.33344 5.16187 2
      vertex -4.38864 7.21707 13.9322
      vertex -4.28109 7.10952 14.1282
    endloop
  endfacet
  facet normal 0.707105 0.707108 -1.04648e-06
    outer loop
      vertex -6.36536 9.19379 12.5078
      vertex -2.33344 5.16187 2
      vertex -10.1116 12.94 2
    endloop
  endfacet
  facet normal 0.707107 0.707107 1.22976e-17
    outer loop
      vertex -4.18247 7.0109 14.3335
      vertex -2.33344 5.16187 2
      vertex -4.28109 7.10952 14.1282
    endloop
  endfacet
  facet normal 0.707107 0.707107 1.3114e-17
    outer loop
      vertex -4.09315 6.92158 14.5471
      vertex -2.33344 5.16187 2
      vertex -4.18247 7.0109 14.3335
    endloop
  endfacet
  facet normal 0.707107 0.707107 2.82681e-17
    outer loop
      vertex -4.01349 6.84192 14.7682
      vertex -2.33344 5.16187 2
      vertex -4.09315 6.92158 14.5471
    endloop
  endfacet
  facet normal 0.707142 0.707071 9.33723e-06
    outer loop
      vertex -3.94381 6.77223 14.9959
      vertex -2.33344 5.16187 2
      vertex -4.01349 6.84192 14.7682
    endloop
  endfacet
  facet normal 0.707066 0.707148 -9.54931e-06
    outer loop
      vertex -3.88437 6.7128 15.2294
      vertex -2.33344 5.16187 2
      vertex -3.94381 6.77223 14.9959
    endloop
  endfacet
  facet normal 0.707107 0.707107 -9.26037e-16
    outer loop
      vertex -3.83541 6.66384 15.4677
      vertex -2.33344 5.16187 2
      vertex -3.88437 6.7128 15.2294
    endloop
  endfacet
  facet normal 0.707107 0.707107 1.07727e-15
    outer loop
      vertex -3.79714 6.62557 15.7098
      vertex -2.33344 5.16187 2
      vertex -3.83541 6.66384 15.4677
    endloop
  endfacet
  facet normal 0.707107 0.707107 2.00243e-17
    outer loop
      vertex -3.76969 6.59812 15.9549
      vertex -2.33344 5.16187 2
      vertex -3.79714 6.62557 15.7098
    endloop
  endfacet
  facet normal 0.707191 0.707022 1.73496e-05
    outer loop
      vertex -3.75318 6.5816 16.202
      vertex -2.33344 5.16187 2
      vertex -3.76969 6.59812 15.9549
    endloop
  endfacet
  facet normal 0.707105 0.707109 9.05352e-08
    outer loop
      vertex -2.33344 5.16187 2
      vertex -3.75318 6.5816 16.202
      vertex -3.74767 6.57609 16.45
    endloop
  endfacet
endsolid OpenSCAD_Model
